<svg xmlns="http://www.w3.org/2000/svg" width="450" height="450" fill="none" viewBox="0 0 450 450"><g clip-path="url(#clip0_533_32)"><mask id="mask0_533_32" style="mask-type:luminance" width="450" height="450" x="0" y="0" maskUnits="userSpaceOnUse"><path fill="#fff" d="M225 450C100.728 450 0 349.272 0 225C0 100.728 100.728 0 225 0C349.272 0 450 100.728 450 225C450 349.272 349.272 450 225 450Z"/></mask><g mask="url(#mask0_533_32)"><path fill="#FEFEFF" fill-rule="evenodd" d="M225 225L-93.24 223.038L-92.952 211.338L225 225Z" clip-rule="evenodd"/><path fill="#FDFEFF" fill-rule="evenodd" d="M225 224.999L-93.0061 213.281L-92.5201 203.525L225 224.999Z" clip-rule="evenodd"/><path fill="#FCFDFF" fill-rule="evenodd" d="M225 225L-92.6279 205.488L-91.9079 195.75L225 225Z" clip-rule="evenodd"/><path fill="#FBFCFF" fill-rule="evenodd" d="M225 225.001L-92.052 197.695L-91.098 187.975L225 225.001Z" clip-rule="evenodd"/><path fill="#FAFCFF" fill-rule="evenodd" d="M225 225L-91.2781 189.918L-90.0901 180.234L225 225Z" clip-rule="evenodd"/><path fill="#F9FBFF" fill-rule="evenodd" d="M225 225L-90.324 182.178L-88.902 172.512L225 225Z" clip-rule="evenodd"/><path fill="#F8FAFF" fill-rule="evenodd" d="M225 225L-89.1721 174.438L-87.5161 164.826L225 225Z" clip-rule="evenodd"/><path fill="#F7FAFF" fill-rule="evenodd" d="M225 225L-87.8401 166.752L-85.9501 157.176L225 225Z" clip-rule="evenodd"/><path fill="#F6F9FF" fill-rule="evenodd" d="M225 225L-86.3279 159.103L-84.1859 149.562L225 225Z" clip-rule="evenodd"/><path fill="#F5F8FF" fill-rule="evenodd" d="M225 225L-84.6179 151.47L-82.2419 142.002L225 225Z" clip-rule="evenodd"/><path fill="#F4F8FF" fill-rule="evenodd" d="M225 225.001L-82.71 143.893L-80.118 134.479L225 225.001Z" clip-rule="evenodd"/><path fill="#F3F7FF" fill-rule="evenodd" d="M225 224.999L-80.6399 136.367L-77.7959 127.025L225 224.999Z" clip-rule="evenodd"/><path fill="#F2F6FF" fill-rule="evenodd" d="M225 224.999L-78.3721 128.897L-75.2941 119.627L225 224.999Z" clip-rule="evenodd"/><path fill="#F1F6FF" fill-rule="evenodd" d="M225 224.999L-75.9241 121.481L-72.6301 112.283L225 224.999Z" clip-rule="evenodd"/><path fill="#F0F5FF" fill-rule="evenodd" d="M225 225L-73.2781 114.12L-69.7681 105.012L225 225Z" clip-rule="evenodd"/><path fill="#EFF4FF" fill-rule="evenodd" d="M225 225.001L-70.47 106.83L-66.744 97.8125L225 225.001Z" clip-rule="evenodd"/><path fill="#EEF3FF" fill-rule="evenodd" d="M225 224.999L-67.4819 99.6112L-63.5219 90.7012L225 224.999Z" clip-rule="evenodd"/><path fill="#EDF3FF" fill-rule="evenodd" d="M225 225L-64.314 92.4841L-60.138 83.6641L225 225Z" clip-rule="evenodd"/><path fill="#ECF2FF" fill-rule="evenodd" d="M225 224.999L-60.9839 85.4273L-56.5919 76.6973L225 224.999Z" clip-rule="evenodd"/><path fill="#EBF1FF" fill-rule="evenodd" d="M225 225L-57.4741 78.4438L-52.8661 69.8398L225 225Z" clip-rule="evenodd"/><path fill="#EAF1FF" fill-rule="evenodd" d="M225 225.001L-53.7839 71.5687L-48.9779 63.0547L225 225.001Z" clip-rule="evenodd"/><path fill="#E9F0FF" fill-rule="evenodd" d="M225 225.001L-49.9319 64.7645L-44.9099 56.3945L225 225.001Z" clip-rule="evenodd"/><path fill="#E8EFFF" fill-rule="evenodd" d="M225 225.001L-45.918 58.0686L-40.698 49.8066L225 225.001Z" clip-rule="evenodd"/><path fill="#E7EFFF" fill-rule="evenodd" d="M225 225L-41.7419 51.4617L-36.3059 43.3438L225 225Z" clip-rule="evenodd"/><path fill="#E6EEFF" fill-rule="evenodd" d="M225 225L-37.4041 44.9642L-31.7881 36.9902L225 225Z" clip-rule="evenodd"/><path fill="#E5EDFF" fill-rule="evenodd" d="M225 225L-32.9041 38.5921L-27.0901 30.7441L225 225Z" clip-rule="evenodd"/><path fill="#E4EDFF" fill-rule="evenodd" d="M225 224.999L-28.26 32.3095L-22.248 24.6055L225 224.999Z" clip-rule="evenodd"/><path fill="#E3ECFF" fill-rule="evenodd" d="M225 224.999L-23.4541 26.1533L-17.2621 18.6113L225 224.999Z" clip-rule="evenodd"/><path fill="#E2EBFF" fill-rule="evenodd" d="M225 225.001L-18.4861 20.1246L-12.1141 12.7266L225 225.001Z" clip-rule="evenodd"/><path fill="#E1EBFF" fill-rule="evenodd" d="M225 224.999L-13.3921 14.2008L-6.84009 6.96484L225 224.999Z" clip-rule="evenodd"/><path fill="#E0EAFF" fill-rule="evenodd" d="M225 225L-8.15405 8.42361L-1.42205 1.34961L225 225Z" clip-rule="evenodd"/><path fill="#DFE9FF" fill-rule="evenodd" d="M225 224.999L-2.77197 2.77137L4.14003 -4.14062L225 224.999Z" clip-rule="evenodd"/><path fill="#DEE9FF" fill-rule="evenodd" d="M225 225L2.77197 -2.77233L9.82797 -9.48633L225 225Z" clip-rule="evenodd"/><path fill="#DDE8FF" fill-rule="evenodd" d="M225 224.999L8.42407 -8.15503L15.6601 -14.707L225 224.999Z" clip-rule="evenodd"/><path fill="#DCE7FF" fill-rule="evenodd" d="M225 225L14.2019 -13.3917L21.5999 -19.7637L225 225Z" clip-rule="evenodd"/><path fill="#DBE7FF" fill-rule="evenodd" d="M225 225L20.124 -18.4857L27.666 -24.6777L225 225Z" clip-rule="evenodd"/><path fill="#DAE6FF" fill-rule="evenodd" d="M225 225.001L26.1541 -23.4533L33.8581 -29.4473L225 225.001Z" clip-rule="evenodd"/><path fill="#D9E5FF" fill-rule="evenodd" d="M225 225L32.3101 -28.2602L40.1581 -34.0742L225 225Z" clip-rule="evenodd"/><path fill="#D8E5FF" fill-rule="evenodd" d="M225 225L38.592 -32.9035L46.566 -38.5195L225 225Z" clip-rule="evenodd"/><path fill="#D7E4FF" fill-rule="evenodd" d="M225 225L44.9641 -37.4043L53.0821 -42.8223L225 225Z" clip-rule="evenodd"/><path fill="#D6E3FF" fill-rule="evenodd" d="M225 224.999L51.4619 -41.7429L59.7239 -46.9629L225 224.999Z" clip-rule="evenodd"/><path fill="#D5E3FF" fill-rule="evenodd" d="M225 225.001L58.0679 -45.9175L66.4379 -50.9395L225 225.001Z" clip-rule="evenodd"/><path fill="#D4E2FF" fill-rule="evenodd" d="M225 225L64.7639 -49.9323L73.2599 -54.7383L225 225Z" clip-rule="evenodd"/><path fill="#D3E1FF" fill-rule="evenodd" d="M225 224.999L71.5679 -53.7846L80.1719 -58.3926L225 224.999Z" clip-rule="evenodd"/><path fill="#D2E0FF" fill-rule="evenodd" d="M225 225L78.4441 -57.4737L87.1741 -61.8477L225 225Z" clip-rule="evenodd"/><path fill="#D1E0FF" fill-rule="evenodd" d="M225 224.999L85.428 -60.9846L94.248 -65.1426L225 224.999Z" clip-rule="evenodd"/><path fill="#D0DFFF" fill-rule="evenodd" d="M225 225.001L92.4839 -64.3134L101.412 -68.2734L225 225.001Z" clip-rule="evenodd"/><path fill="#CFDEFF" fill-rule="evenodd" d="M225 224.999L99.6121 -67.4826L108.648 -71.2266L225 224.999Z" clip-rule="evenodd"/><path fill="#CEDEFF" fill-rule="evenodd" d="M225 225L106.83 -70.4705L115.956 -73.9805L225 225Z" clip-rule="evenodd"/><path fill="#CDDDFF" fill-rule="evenodd" d="M225 225L114.12 -73.2783L123.318 -76.5723L225 225Z" clip-rule="evenodd"/><path fill="#CCDCFF" fill-rule="evenodd" d="M225 224.999L121.482 -75.9248L130.752 -78.9668L225 224.999Z" clip-rule="evenodd"/><path fill="#CBDCFF" fill-rule="evenodd" d="M225 225.001L128.898 -78.3713L138.24 -81.1973L225 225.001Z" clip-rule="evenodd"/><path fill="#CADBFF" fill-rule="evenodd" d="M225 225L136.368 -80.6404L145.782 -83.2324L225 225Z" clip-rule="evenodd"/><path fill="#C9DAFF" fill-rule="evenodd" d="M225 225L143.892 -82.7099L153.36 -85.0859L225 225Z" clip-rule="evenodd"/><path fill="#C8DAFF" fill-rule="evenodd" d="M225 225L151.47 -84.6182L160.992 -86.7422L225 225Z" clip-rule="evenodd"/><path fill="#C7D9FF" fill-rule="evenodd" d="M225 224.999L159.102 -86.3288L168.66 -88.2188L225 224.999Z" clip-rule="evenodd"/><path fill="#C6D8FF" fill-rule="evenodd" d="M225 225L166.752 -87.8397L176.364 -89.5137L225 225Z" clip-rule="evenodd"/><path fill="#C5D8FF" fill-rule="evenodd" d="M225 225.001L174.438 -89.1713L184.104 -90.6113L225 225.001Z" clip-rule="evenodd"/><path fill="#C4D7FF" fill-rule="evenodd" d="M225 225L182.178 -90.3237L191.862 -91.5117L225 225Z" clip-rule="evenodd"/><path fill="#C3D6FF" fill-rule="evenodd" d="M225 225L189.918 -91.2784L199.638 -92.2324L225 225Z" clip-rule="evenodd"/><path fill="#C2D6FF" fill-rule="evenodd" d="M225 225.001L197.694 -92.0515L207.432 -92.7715L225 225.001Z" clip-rule="evenodd"/><path fill="#C1D5FF" fill-rule="evenodd" d="M225 225L205.488 -92.6277L215.244 -93.0957L225 225Z" clip-rule="evenodd"/><path fill="#C0D4FF" fill-rule="evenodd" d="M225 225L213.282 -93.0062L223.038 -93.2402L225 225Z" clip-rule="evenodd"/><path fill="#BFD4FF" fill-rule="evenodd" d="M225 224.999L221.094 -93.2051H230.85L225 224.999Z" clip-rule="evenodd"/><path fill="#BED3FF" fill-rule="evenodd" d="M225 224.999L228.906 -93.2051L238.662 -92.9531L225 224.999Z" clip-rule="evenodd"/><path fill="#BDD2FF" fill-rule="evenodd" d="M225 225L236.718 -93.0059L246.456 -92.5199L225 225Z" clip-rule="evenodd"/><path fill="#BCD2FF" fill-rule="evenodd" d="M225 224.999L244.512 -92.6289L254.25 -91.9089L225 224.999Z" clip-rule="evenodd"/><path fill="#BBD1FF" fill-rule="evenodd" d="M225 224.999L252.306 -92.0527L262.026 -91.0987L225 224.999Z" clip-rule="evenodd"/><path fill="#BAD0FF" fill-rule="evenodd" d="M225 225.001L260.064 -91.2773L269.766 -90.0893L225 225.001Z" clip-rule="evenodd"/><path fill="#B9D0FF" fill-rule="evenodd" d="M225 225L267.822 -90.3242L277.488 -88.9022L225 225Z" clip-rule="evenodd"/><path fill="#B8CFFF" fill-rule="evenodd" d="M225 225L275.544 -89.1719L285.174 -87.5159L225 225Z" clip-rule="evenodd"/><path fill="#B7CEFF" fill-rule="evenodd" d="M225 225L283.248 -87.8398L292.824 -85.9498L225 225Z" clip-rule="evenodd"/><path fill="#B6CDFF" fill-rule="evenodd" d="M225 225L290.898 -86.3281L300.438 -84.1861L225 225Z" clip-rule="evenodd"/><path fill="#B5CDFF" fill-rule="evenodd" d="M225 224.999L298.53 -84.6191L307.998 -82.2431L225 224.999Z" clip-rule="evenodd"/><path fill="#B4CCFF" fill-rule="evenodd" d="M225 224.999L306.108 -82.7109L315.504 -80.1189L225 224.999Z" clip-rule="evenodd"/><path fill="#B3CBFF" fill-rule="evenodd" d="M225 224.999L313.632 -80.6406L322.974 -77.7966L225 224.999Z" clip-rule="evenodd"/><path fill="#B2CBFF" fill-rule="evenodd" d="M225 224.999L321.102 -78.373L330.372 -75.295L225 224.999Z" clip-rule="evenodd"/><path fill="#B1CAFF" fill-rule="evenodd" d="M225 225L328.518 -75.9238L337.716 -72.6298L225 225Z" clip-rule="evenodd"/><path fill="#B0C9FF" fill-rule="evenodd" d="M225 225.001L335.88 -73.2773L344.988 -69.7673L225 225.001Z" clip-rule="evenodd"/><path fill="#AFC9FF" fill-rule="evenodd" d="M225 224.999L343.152 -70.4707L352.188 -66.7447L225 224.999Z" clip-rule="evenodd"/><path fill="#AEC8FF" fill-rule="evenodd" d="M225 225L350.37 -67.4824L359.298 -63.5224L225 225Z" clip-rule="evenodd"/><path fill="#ADC7FF" fill-rule="evenodd" d="M225 225L357.516 -64.3145L366.336 -60.1385L225 225Z" clip-rule="evenodd"/><path fill="#ACC7FF" fill-rule="evenodd" d="M225 225L364.572 -60.9844L373.302 -56.5924L225 225Z" clip-rule="evenodd"/><path fill="#ABC6FF" fill-rule="evenodd" d="M225 224.999L371.556 -57.4746L380.16 -52.8666L225 224.999Z" clip-rule="evenodd"/><path fill="#AAC5FF" fill-rule="evenodd" d="M225 224.999L378.432 -53.7852L386.946 -48.9792L225 224.999Z" clip-rule="evenodd"/><path fill="#A9C5FF" fill-rule="evenodd" d="M225 225L385.236 -49.9316L393.606 -44.9096L225 225Z" clip-rule="evenodd"/><path fill="#A8C4FF" fill-rule="evenodd" d="M225 225L391.932 -45.918L400.176 -40.698L225 225Z" clip-rule="evenodd"/><path fill="#A7C3FF" fill-rule="evenodd" d="M225 225L398.538 -41.7422L406.656 -36.3062L225 225Z" clip-rule="evenodd"/><path fill="#A6C3FF" fill-rule="evenodd" d="M225 225L405.036 -37.4043L413.01 -31.7883L225 225Z" clip-rule="evenodd"/><path fill="#A5C2FF" fill-rule="evenodd" d="M225 225L411.408 -32.9043L419.256 -27.0903L225 225Z" clip-rule="evenodd"/><path fill="#A4C1FF" fill-rule="evenodd" d="M225 225L417.69 -28.2598L425.376 -22.2478L225 225Z" clip-rule="evenodd"/><path fill="#A3C1FF" fill-rule="evenodd" d="M225 224.999L423.846 -23.4551L431.388 -17.2631L225 224.999Z" clip-rule="evenodd"/><path fill="#A2C0FF" fill-rule="evenodd" d="M225 225L429.876 -18.4863L437.274 -12.1143L225 225Z" clip-rule="evenodd"/><path fill="#A1BFFF" fill-rule="evenodd" d="M225 224.999L435.798 -13.3926L443.034 -6.84058L225 224.999Z" clip-rule="evenodd"/><path fill="#A0BFFF" fill-rule="evenodd" d="M225 225L441.576 -8.1543L448.65 -1.4223L225 225Z" clip-rule="evenodd"/><path fill="#9FBEFF" fill-rule="evenodd" d="M225 225.001L447.228 -2.77148L454.14 4.14052L225 225.001Z" clip-rule="evenodd"/><path fill="#9EBDFF" fill-rule="evenodd" d="M225 224.999L452.754 2.77148L459.486 9.82748L225 224.999Z" clip-rule="evenodd"/><path fill="#9DBDFF" fill-rule="evenodd" d="M225 225L458.154 8.42383L464.706 15.6598L225 225Z" clip-rule="evenodd"/><path fill="#9CBCFF" fill-rule="evenodd" d="M225 224.999L463.392 14.2012L469.764 21.5992L225 224.999Z" clip-rule="evenodd"/><path fill="#9BBBFF" fill-rule="evenodd" d="M225 224.999L468.486 20.123L474.678 27.665L225 224.999Z" clip-rule="evenodd"/><path fill="#9ABAFF" fill-rule="evenodd" d="M225 225L473.454 26.1543L479.448 33.8583L225 225Z" clip-rule="evenodd"/><path fill="#99BAFF" fill-rule="evenodd" d="M225 225.001L478.26 32.3105L484.074 40.1585L225 225.001Z" clip-rule="evenodd"/><path fill="#98B9FF" fill-rule="evenodd" d="M225 225L482.904 38.5918L488.52 46.5658L225 225Z" clip-rule="evenodd"/><path fill="#97B8FF" fill-rule="evenodd" d="M225 224.999L487.404 44.9629L492.822 53.0809L225 224.999Z" clip-rule="evenodd"/><path fill="#96B8FF" fill-rule="evenodd" d="M225 224.999L491.742 51.4609L496.962 59.7229L225 224.999Z" clip-rule="evenodd"/><path fill="#95B7FF" fill-rule="evenodd" d="M225 225L495.918 58.0684L500.94 66.4384L225 225Z" clip-rule="evenodd"/><path fill="#94B6FF" fill-rule="evenodd" d="M225 225L499.932 64.7637L504.738 73.2597L225 225Z" clip-rule="evenodd"/><path fill="#93B6FF" fill-rule="evenodd" d="M225 225L503.784 71.5684L508.374 80.1724L225 225Z" clip-rule="evenodd"/><path fill="#92B5FF" fill-rule="evenodd" d="M225 224.999L507.456 78.4434L511.848 87.1734L225 224.999Z" clip-rule="evenodd"/><path fill="#91B4FF" fill-rule="evenodd" d="M225 225L510.984 85.4277L515.142 94.2477L225 225Z" clip-rule="evenodd"/><path fill="#90B4FF" fill-rule="evenodd" d="M225 225L514.314 92.4844L518.274 101.412L225 225Z" clip-rule="evenodd"/><path fill="#8FB3FF" fill-rule="evenodd" d="M225 224.999L517.482 99.6113L521.208 108.647L225 224.999Z" clip-rule="evenodd"/><path fill="#8EB2FF" fill-rule="evenodd" d="M225 225L520.47 106.83L523.98 115.956L225 225Z" clip-rule="evenodd"/><path fill="#8DB2FF" fill-rule="evenodd" d="M225 224.999L523.278 114.119L526.572 123.317L225 224.999Z" clip-rule="evenodd"/><path fill="#8CB1FF" fill-rule="evenodd" d="M225 225L525.906 121.482L528.966 130.752L225 225Z" clip-rule="evenodd"/><path fill="#8BB0FF" fill-rule="evenodd" d="M225 225L528.354 128.898L531.198 138.24L225 225Z" clip-rule="evenodd"/><path fill="#8AB0FF" fill-rule="evenodd" d="M225 224.999L530.622 136.367L533.232 145.781L225 224.999Z" clip-rule="evenodd"/><path fill="#89AFFF" fill-rule="evenodd" d="M225 225.001L532.71 143.893L535.086 153.361L225 225.001Z" clip-rule="evenodd"/><path fill="#88AEFF" fill-rule="evenodd" d="M225 225.001L534.618 151.471L536.742 160.993L225 225.001Z" clip-rule="evenodd"/><path fill="#87AEFF" fill-rule="evenodd" d="M225 225L536.31 159.102L538.218 168.66L225 225Z" clip-rule="evenodd"/><path fill="#86ADFF" fill-rule="evenodd" d="M225 225L537.84 166.752L539.514 176.364L225 225Z" clip-rule="evenodd"/><path fill="#85ACFF" fill-rule="evenodd" d="M225 225L539.172 174.438L540.612 184.104L225 225Z" clip-rule="evenodd"/><path fill="#84ACFF" fill-rule="evenodd" d="M225 225L540.324 182.178L541.512 191.862L225 225Z" clip-rule="evenodd"/><path fill="#83ABFF" fill-rule="evenodd" d="M225 225L541.278 189.918L542.232 199.638L225 225Z" clip-rule="evenodd"/><path fill="#82AAFF" fill-rule="evenodd" d="M225 224.999L542.052 197.693L542.772 207.431L225 224.999Z" clip-rule="evenodd"/><path fill="#81AAFF" fill-rule="evenodd" d="M225 225L542.628 205.488L543.096 215.244L225 225Z" clip-rule="evenodd"/><path fill="#80A9FF" fill-rule="evenodd" d="M225 224.999L543.006 213.281L543.24 223.037L225 224.999Z" clip-rule="evenodd"/><path fill="#7FA8FF" fill-rule="evenodd" d="M225 225L543.186 221.094V230.85L225 225Z" clip-rule="evenodd"/><path fill="#7EA7FF" fill-rule="evenodd" d="M225 225L543.186 228.906L542.952 238.662L225 225Z" clip-rule="evenodd"/><path fill="#7DA7FF" fill-rule="evenodd" d="M225 225L543.006 236.718L542.52 246.456L225 225Z" clip-rule="evenodd"/><path fill="#7CA6FF" fill-rule="evenodd" d="M225 225L542.628 244.512L541.908 254.25L225 225Z" clip-rule="evenodd"/><path fill="#7BA5FF" fill-rule="evenodd" d="M225 225L542.052 252.306L541.098 262.026L225 225Z" clip-rule="evenodd"/><path fill="#7AA5FF" fill-rule="evenodd" d="M225 225L541.278 260.064L540.09 269.766L225 225Z" clip-rule="evenodd"/><path fill="#79A4FF" fill-rule="evenodd" d="M225 225L540.324 267.822L538.884 277.488L225 225Z" clip-rule="evenodd"/><path fill="#78A3FF" fill-rule="evenodd" d="M225 225L539.172 275.544L537.516 285.174L225 225Z" clip-rule="evenodd"/><path fill="#77A3FF" fill-rule="evenodd" d="M225 225L537.84 283.248L535.932 292.824L225 225Z" clip-rule="evenodd"/><path fill="#76A2FF" fill-rule="evenodd" d="M225 225L536.31 290.898L534.186 300.438L225 225Z" clip-rule="evenodd"/><path fill="#75A1FF" fill-rule="evenodd" d="M225 225L534.618 298.53L532.242 307.998L225 225Z" clip-rule="evenodd"/><path fill="#74A1FF" fill-rule="evenodd" d="M225 225L532.71 306.108L530.118 315.504L225 225Z" clip-rule="evenodd"/><path fill="#73A0FF" fill-rule="evenodd" d="M225 225L530.622 313.632L527.796 322.974L225 225Z" clip-rule="evenodd"/><path fill="#729FFF" fill-rule="evenodd" d="M225 225L528.354 321.102L525.294 330.372L225 225Z" clip-rule="evenodd"/><path fill="#719FFF" fill-rule="evenodd" d="M225 225L525.906 328.518L522.63 337.716L225 225Z" clip-rule="evenodd"/><path fill="#709EFF" fill-rule="evenodd" d="M225 225L523.278 335.88L519.768 344.988L225 225Z" clip-rule="evenodd"/><path fill="#6F9DFF" fill-rule="evenodd" d="M225 225L520.47 343.152L516.726 352.188L225 225Z" clip-rule="evenodd"/><path fill="#6E9DFF" fill-rule="evenodd" d="M225 225L517.482 350.37L513.522 359.298L225 225Z" clip-rule="evenodd"/><path fill="#6D9CFF" fill-rule="evenodd" d="M225 225L514.314 357.516L510.138 366.336L225 225Z" clip-rule="evenodd"/><path fill="#6C9BFF" fill-rule="evenodd" d="M225 225L510.984 364.572L506.592 373.302L225 225Z" clip-rule="evenodd"/><path fill="#6B9BFF" fill-rule="evenodd" d="M225 225L507.456 371.556L502.866 380.16L225 225Z" clip-rule="evenodd"/><path fill="#6A9AFF" fill-rule="evenodd" d="M225 225L503.784 378.432L498.978 386.946L225 225Z" clip-rule="evenodd"/><path fill="#6999FF" fill-rule="evenodd" d="M225 225L499.932 385.236L494.91 393.606L225 225Z" clip-rule="evenodd"/><path fill="#6899FF" fill-rule="evenodd" d="M225 225L495.918 391.932L490.698 400.176L225 225Z" clip-rule="evenodd"/><path fill="#6798FF" fill-rule="evenodd" d="M225 225L491.742 398.538L486.306 406.656L225 225Z" clip-rule="evenodd"/><path fill="#6697FF" fill-rule="evenodd" d="M225 225L487.404 405.036L481.788 413.01L225 225Z" clip-rule="evenodd"/><path fill="#6597FF" fill-rule="evenodd" d="M225 225L482.904 411.408L477.09 419.256L225 225Z" clip-rule="evenodd"/><path fill="#6496FF" fill-rule="evenodd" d="M225 225L478.26 417.69L472.248 425.376L225 225Z" clip-rule="evenodd"/><path fill="#6395FF" fill-rule="evenodd" d="M225 225L473.454 423.846L467.262 431.388L225 225Z" clip-rule="evenodd"/><path fill="#6294FF" fill-rule="evenodd" d="M225 225L468.486 429.876L462.114 437.274L225 225Z" clip-rule="evenodd"/><path fill="#6194FF" fill-rule="evenodd" d="M225 225L463.392 435.798L456.84 443.034L225 225Z" clip-rule="evenodd"/><path fill="#6093FF" fill-rule="evenodd" d="M225 225L458.154 441.576L451.422 448.65L225 225Z" clip-rule="evenodd"/><path fill="#5F92FF" fill-rule="evenodd" d="M225 225L452.754 447.228L445.86 454.14L225 225Z" clip-rule="evenodd"/><path fill="#5E92FF" fill-rule="evenodd" d="M225 225L447.228 452.754L440.172 459.486L225 225Z" clip-rule="evenodd"/><path fill="#5D91FF" fill-rule="evenodd" d="M225 225L441.576 458.154L434.34 464.706L225 225Z" clip-rule="evenodd"/><path fill="#5C90FF" fill-rule="evenodd" d="M225 225L435.798 463.392L428.4 469.764L225 225Z" clip-rule="evenodd"/><path fill="#5B90FF" fill-rule="evenodd" d="M225 225L429.876 468.486L422.334 474.678L225 225Z" clip-rule="evenodd"/><path fill="#5A8FFF" fill-rule="evenodd" d="M225 225L423.846 473.454L416.142 479.448L225 225Z" clip-rule="evenodd"/><path fill="#598EFF" fill-rule="evenodd" d="M225 225L417.69 478.26L409.842 484.074L225 225Z" clip-rule="evenodd"/><path fill="#588EFF" fill-rule="evenodd" d="M225 225L411.408 482.904L403.434 488.52L225 225Z" clip-rule="evenodd"/><path fill="#578DFF" fill-rule="evenodd" d="M225 225L405.036 487.404L396.9 492.822L225 225Z" clip-rule="evenodd"/><path fill="#568CFF" fill-rule="evenodd" d="M225 225L398.538 491.742L390.276 496.962L225 225Z" clip-rule="evenodd"/><path fill="#558CFF" fill-rule="evenodd" d="M225 225L391.932 495.918L383.562 500.94L225 225Z" clip-rule="evenodd"/><path fill="#548BFF" fill-rule="evenodd" d="M225 225L385.236 499.932L376.74 504.738L225 225Z" clip-rule="evenodd"/><path fill="#538AFF" fill-rule="evenodd" d="M225 225L378.432 503.784L369.828 508.374L225 225Z" clip-rule="evenodd"/><path fill="#528AFF" fill-rule="evenodd" d="M225 225L371.556 507.456L362.826 511.848L225 225Z" clip-rule="evenodd"/><path fill="#5189FF" fill-rule="evenodd" d="M225 225L364.572 510.984L355.752 515.142L225 225Z" clip-rule="evenodd"/><path fill="#5088FF" fill-rule="evenodd" d="M225 225L357.516 514.314L348.588 518.274L225 225Z" clip-rule="evenodd"/><path fill="#4F88FF" fill-rule="evenodd" d="M225 225L350.37 517.482L341.352 521.208L225 225Z" clip-rule="evenodd"/><path fill="#4E87FF" fill-rule="evenodd" d="M225 225L343.152 520.47L334.044 523.98L225 225Z" clip-rule="evenodd"/><path fill="#4D86FF" fill-rule="evenodd" d="M225 225L335.88 523.278L326.682 526.572L225 225Z" clip-rule="evenodd"/><path fill="#4C86FF" fill-rule="evenodd" d="M225 225L328.518 525.906L319.248 528.966L225 225Z" clip-rule="evenodd"/><path fill="#4B85FF" fill-rule="evenodd" d="M225 225L321.102 528.354L311.76 531.198L225 225Z" clip-rule="evenodd"/><path fill="#4A84FF" fill-rule="evenodd" d="M225 225L313.632 530.622L304.218 533.232L225 225Z" clip-rule="evenodd"/><path fill="#4984FF" fill-rule="evenodd" d="M225 225L306.108 532.71L296.622 535.086L225 225Z" clip-rule="evenodd"/><path fill="#4883FF" fill-rule="evenodd" d="M225 225L298.53 534.618L289.008 536.742L225 225Z" clip-rule="evenodd"/><path fill="#4782FF" fill-rule="evenodd" d="M225 225L290.898 536.31L281.322 538.218L225 225Z" clip-rule="evenodd"/><path fill="#4681FF" fill-rule="evenodd" d="M225 225L283.248 537.84L273.636 539.514L225 225Z" clip-rule="evenodd"/><path fill="#4581FF" fill-rule="evenodd" d="M225 225L275.544 539.172L265.896 540.612L225 225Z" clip-rule="evenodd"/><path fill="#4480FF" fill-rule="evenodd" d="M225 225L267.822 540.324L258.138 541.512L225 225Z" clip-rule="evenodd"/><path fill="#437FFF" fill-rule="evenodd" d="M225 225L260.064 541.278L250.362 542.232L225 225Z" clip-rule="evenodd"/><path fill="#427FFF" fill-rule="evenodd" d="M225 225L252.306 542.052L242.568 542.772L225 225Z" clip-rule="evenodd"/><path fill="#417EFF" fill-rule="evenodd" d="M225 225L244.512 542.628L234.756 543.096L225 225Z" clip-rule="evenodd"/><path fill="#407DFF" fill-rule="evenodd" d="M225 225L236.718 543.006L226.944 543.24L225 225Z" clip-rule="evenodd"/><path fill="#3F7DFF" fill-rule="evenodd" d="M225 225L228.906 543.186H219.132L225 225Z" clip-rule="evenodd"/><path fill="#3E7CFF" fill-rule="evenodd" d="M225 225L221.094 543.186L211.338 542.952L225 225Z" clip-rule="evenodd"/><path fill="#3D7BFF" fill-rule="evenodd" d="M225 225L213.282 543.006L203.526 542.52L225 225Z" clip-rule="evenodd"/><path fill="#3C7BFF" fill-rule="evenodd" d="M225 225L205.488 542.628L195.75 541.908L225 225Z" clip-rule="evenodd"/><path fill="#3B7AFF" fill-rule="evenodd" d="M225 225L197.694 542.052L187.974 541.098L225 225Z" clip-rule="evenodd"/><path fill="#3A79FF" fill-rule="evenodd" d="M225 225L189.918 541.278L180.234 540.09L225 225Z" clip-rule="evenodd"/><path fill="#3979FF" fill-rule="evenodd" d="M225 225L182.178 540.324L172.512 538.884L225 225Z" clip-rule="evenodd"/><path fill="#3878FF" fill-rule="evenodd" d="M225 225L174.438 539.172L164.826 537.516L225 225Z" clip-rule="evenodd"/><path fill="#3777FF" fill-rule="evenodd" d="M225 225L166.752 537.84L157.176 535.932L225 225Z" clip-rule="evenodd"/><path fill="#3677FF" fill-rule="evenodd" d="M225 225L159.102 536.31L149.562 534.186L225 225Z" clip-rule="evenodd"/><path fill="#3576FF" fill-rule="evenodd" d="M225 225L151.47 534.618L142.002 532.242L225 225Z" clip-rule="evenodd"/><path fill="#3475FF" fill-rule="evenodd" d="M225 225L143.892 532.71L134.478 530.118L225 225Z" clip-rule="evenodd"/><path fill="#3375FF" fill-rule="evenodd" d="M225 225L136.368 530.622L127.026 527.796L225 225Z" clip-rule="evenodd"/><path fill="#3274FF" fill-rule="evenodd" d="M225 225L128.898 528.354L119.628 525.294L225 225Z" clip-rule="evenodd"/><path fill="#3173FF" fill-rule="evenodd" d="M225 225L121.482 525.906L112.284 522.63L225 225Z" clip-rule="evenodd"/><path fill="#3073FF" fill-rule="evenodd" d="M225 225L114.12 523.278L105.012 519.768L225 225Z" clip-rule="evenodd"/><path fill="#2F72FF" fill-rule="evenodd" d="M225 225L106.83 520.47L97.812 516.726L225 225Z" clip-rule="evenodd"/><path fill="#2E71FF" fill-rule="evenodd" d="M225 225L99.6119 517.482L90.7019 513.522L225 225Z" clip-rule="evenodd"/><path fill="#2D71FF" fill-rule="evenodd" d="M225 225L92.4841 514.314L83.6641 510.138L225 225Z" clip-rule="evenodd"/><path fill="#2C70FF" fill-rule="evenodd" d="M225 225L85.428 510.984L76.698 506.592L225 225Z" clip-rule="evenodd"/><path fill="#2B6FFF" fill-rule="evenodd" d="M225 225L78.4441 507.456L69.8401 502.866L225 225Z" clip-rule="evenodd"/><path fill="#2A6EFF" fill-rule="evenodd" d="M225 225L71.568 503.784L63.054 498.978L225 225Z" clip-rule="evenodd"/><path fill="#296EFF" fill-rule="evenodd" d="M225 225L64.764 499.932L56.394 494.91L225 225Z" clip-rule="evenodd"/><path fill="#286DFF" fill-rule="evenodd" d="M225 225L58.0679 495.918L49.8059 490.698L225 225Z" clip-rule="evenodd"/><path fill="#276CFF" fill-rule="evenodd" d="M225 225L51.462 491.742L43.344 486.306L225 225Z" clip-rule="evenodd"/><path fill="#266CFF" fill-rule="evenodd" d="M225 225L44.964 487.404L36.99 481.788L225 225Z" clip-rule="evenodd"/><path fill="#256BFF" fill-rule="evenodd" d="M225 225L38.5919 482.904L30.7439 477.09L225 225Z" clip-rule="evenodd"/><path fill="#246AFF" fill-rule="evenodd" d="M225 225L32.31 478.26L24.606 472.248L225 225Z" clip-rule="evenodd"/><path fill="#236AFF" fill-rule="evenodd" d="M225 225L26.1541 473.454L18.6121 467.262L225 225Z" clip-rule="evenodd"/><path fill="#2269FF" fill-rule="evenodd" d="M225 225L20.1241 468.486L12.7261 462.114L225 225Z" clip-rule="evenodd"/><path fill="#2168FF" fill-rule="evenodd" d="M225 225L14.2021 463.392L6.96606 456.84L225 225Z" clip-rule="evenodd"/><path fill="#2068FF" fill-rule="evenodd" d="M225 225L8.4241 458.154L1.3501 451.422L225 225Z" clip-rule="evenodd"/><path fill="#1F67FF" fill-rule="evenodd" d="M225 225L2.77211 452.754L-4.13989 445.86L225 225Z" clip-rule="evenodd"/><path fill="#1E66FF" fill-rule="evenodd" d="M225 225L-2.77208 447.228L-9.48608 440.172L225 225Z" clip-rule="evenodd"/><path fill="#1D66FF" fill-rule="evenodd" d="M225 225L-8.15405 441.576L-14.7061 434.34L225 225Z" clip-rule="evenodd"/><path fill="#1C65FF" fill-rule="evenodd" d="M225 225L-13.3919 435.798L-19.7639 428.4L225 225Z" clip-rule="evenodd"/><path fill="#1B64FF" fill-rule="evenodd" d="M225 225L-18.486 429.876L-24.678 422.334L225 225Z" clip-rule="evenodd"/><path fill="#1A64FF" fill-rule="evenodd" d="M225 225L-23.454 423.846L-29.448 416.142L225 225Z" clip-rule="evenodd"/><path fill="#1963FF" fill-rule="evenodd" d="M225 225L-28.26 417.69L-34.074 409.842L225 225Z" clip-rule="evenodd"/><path fill="#1862FF" fill-rule="evenodd" d="M225 225L-32.904 411.408L-38.52 403.434L225 225Z" clip-rule="evenodd"/><path fill="#1762FF" fill-rule="evenodd" d="M225 225L-37.404 405.036L-42.822 396.9L225 225Z" clip-rule="evenodd"/><path fill="#1661FF" fill-rule="evenodd" d="M225 225L-41.7419 398.538L-46.9619 390.276L225 225Z" clip-rule="evenodd"/><path fill="#1560FF" fill-rule="evenodd" d="M225 225L-45.9179 391.932L-50.9399 383.562L225 225Z" clip-rule="evenodd"/><path fill="#1460FF" fill-rule="evenodd" d="M225 225L-49.932 385.236L-54.738 376.74L225 225Z" clip-rule="evenodd"/><path fill="#135FFF" fill-rule="evenodd" d="M225 225L-53.7841 378.432L-58.3921 369.828L225 225Z" clip-rule="evenodd"/><path fill="#125EFF" fill-rule="evenodd" d="M225 225L-57.4739 371.556L-61.8479 362.826L225 225Z" clip-rule="evenodd"/><path fill="#115EFF" fill-rule="evenodd" d="M225 225L-60.9841 364.572L-65.1421 355.752L225 225Z" clip-rule="evenodd"/><path fill="#105DFF" fill-rule="evenodd" d="M225 225L-64.3139 357.516L-68.2739 348.588L225 225Z" clip-rule="evenodd"/><path fill="#0F5CFF" fill-rule="evenodd" d="M225 225L-67.4821 350.37L-71.2261 341.352L225 225Z" clip-rule="evenodd"/><path fill="#0E5BFF" fill-rule="evenodd" d="M225 225L-70.47 343.152L-73.98 334.044L225 225Z" clip-rule="evenodd"/><path fill="#0D5BFF" fill-rule="evenodd" d="M225 225L-73.278 335.88L-76.572 326.682L225 225Z" clip-rule="evenodd"/><path fill="#0C5AFF" fill-rule="evenodd" d="M225 225L-75.9241 328.518L-78.9661 319.248L225 225Z" clip-rule="evenodd"/><path fill="#0B59FF" fill-rule="evenodd" d="M225 225L-78.372 321.102L-81.198 311.76L225 225Z" clip-rule="evenodd"/><path fill="#0A59FF" fill-rule="evenodd" d="M225 225L-80.6399 313.632L-83.2319 304.218L225 225Z" clip-rule="evenodd"/><path fill="#0958FF" fill-rule="evenodd" d="M225 225L-82.7099 306.108L-85.0859 296.622L225 225Z" clip-rule="evenodd"/><path fill="#0857FF" fill-rule="evenodd" d="M225 225L-84.6179 298.53L-86.7419 289.008L225 225Z" clip-rule="evenodd"/><path fill="#0757FF" fill-rule="evenodd" d="M225 225L-86.328 290.898L-88.218 281.322L225 225Z" clip-rule="evenodd"/><path fill="#0656FF" fill-rule="evenodd" d="M225 225L-87.8399 283.248L-89.5139 273.636L225 225Z" clip-rule="evenodd"/><path fill="#0555FF" fill-rule="evenodd" d="M225 225L-89.1721 275.544L-90.6121 265.896L225 225Z" clip-rule="evenodd"/><path fill="#0455FF" fill-rule="evenodd" d="M225 225L-90.324 267.822L-91.512 258.138L225 225Z" clip-rule="evenodd"/><path fill="#0354FF" fill-rule="evenodd" d="M225 225L-91.2779 260.064L-92.2319 250.362L225 225Z" clip-rule="evenodd"/><path fill="#0253FF" fill-rule="evenodd" d="M225 225L-92.052 252.306L-92.772 242.568L225 225Z" clip-rule="evenodd"/><path fill="#0153FF" fill-rule="evenodd" d="M225 225L-92.6279 244.512L-93.0959 234.756L225 225Z" clip-rule="evenodd"/><path fill="#0052FF" fill-rule="evenodd" d="M225 225L-93.006 236.718L-93.24 226.944L225 225Z" clip-rule="evenodd"/><path fill="#fff" fill-rule="evenodd" d="M225 225L-93.2041 228.906V221.094L225 225Z" clip-rule="evenodd"/></g></g><defs><clipPath id="clip0_533_32"><rect width="450" height="450" fill="#fff"/></clipPath></defs></svg>